<svg xmlns="http://www.w3.org/2000/svg" viewBox="0 0 283.46 44.16"><defs><style>.cls-1{fill:#f8f7f7;}.cls-2{fill:#b78e35;}</style></defs><title>Ultima_Brand_Assets_RGB_WORDMARK_ULTIMA_MIN_SIZE_PORCELAIN</title><g id="Asset"><path class="cls-1" d="M233.36,80.91a2.14,2.14,0,0,0,.91,2v.15h-11.1V82.9a2.14,2.14,0,0,0,.91-2v-34a2.65,2.65,0,0,1,2.65-2.65h7.54v.16a2.13,2.13,0,0,0-.91,2ZM201.12,46.19a3.41,3.41,0,0,0-3.1-2H189.3v.15a4.49,4.49,0,0,1,1.88,2.19l16.87,36.5h.15l5-10.8ZM200.2,82.9a27.9,27.9,0,0,1-5.53-5.32,32.92,32.92,0,0,1-4.41-6.72h-.15v10a2.14,2.14,0,0,1-.91,2v.15h11ZM53.63,72.21v-25a3,3,0,0,0-3-3H43.44v.16a2.13,2.13,0,0,1,.91,2V67c0,12.51,7.83,16,14.81,16v-.11C58.17,82.94,53.63,80.93,53.63,72.21ZM79,44.21v.16a2.13,2.13,0,0,0-.91,2V67c0,12.51-7.82,16-14.8,16v-.11c1,0,5.52-2,5.52-10.73v-25a3,3,0,0,1,3-3Zm96.33,36.7v-34a2.65,2.65,0,0,0-2.65-2.65h-7.54v.16a2.13,2.13,0,0,1,.91,2V80.91a2.14,2.14,0,0,1-.91,2v.15h11.1V82.9A2.14,2.14,0,0,1,175.37,80.91ZM97.85,44.21H90.31v.16a2.13,2.13,0,0,1,.91,2V80.91a2.14,2.14,0,0,1-.91,2v.15H100.5V46.86A2.65,2.65,0,0,0,97.85,44.21Zm19.41,26.65a41,41,0,0,1-5.6,6.69,40.47,40.47,0,0,1-7,5.35v.15h10.1a2.65,2.65,0,0,0,2.65-2.65V70.86Zm25.26,10V44.21h-9.28v36.7a2.14,2.14,0,0,1-.91,2v.15h11.1V82.9A2.14,2.14,0,0,1,142.52,80.91Zm-22.78-34v9.55h.15a29.5,29.5,0,0,1,4.59-6.82,31.41,31.41,0,0,1,6-5.23v-.15h-8.1A2.65,2.65,0,0,0,119.74,46.86Zm33.44-2.65h-8.11v.15a31.41,31.41,0,0,1,6,5.23,29.78,29.78,0,0,1,4.6,6.82h.15V46.86A2.65,2.65,0,0,0,153.18,44.21Zm95.94,26.65a3.4,3.4,0,0,0-3,1.87l-4.05,8a5,5,0,0,1-1.84,2.18v.15H249a3.4,3.4,0,0,0,3-1.86l4.08-8.06A5.08,5.08,0,0,1,258,71v-.15Zm32.26,12.19h-8.84a3.4,3.4,0,0,1-3-1.86L255.65,53.84l5.06-10h.16l18.68,36.89a5,5,0,0,0,1.83,2.18Z" transform="translate(-43.44 -41.37)"/><path class="cls-2" d="M303.21,67.92a2.48,2.48,0,0,0,1.18-1.47h6.37a2.42,2.42,0,0,0,1.17,1.47,3.5,3.5,0,0,0-.94,1.55h-6.84A3.5,3.5,0,0,0,303.21,67.92Zm-.31-14.73c.32,4.26,2.45,6,3,11.11-.8-3.33-2.77-7.71-7.63-9.09-7.71-2.2-13,6-8.27,10.53a6.58,6.58,0,0,0,7.52,1.19c-3-1-2.58-6.31,2.25-5.49a6.43,6.43,0,0,1,4.51,4h3.25V41.37A15.24,15.24,0,0,0,302.9,53.19Zm1.28,17.31a2.27,2.27,0,0,1-.21.56c-.82,1.57-2.23,2.83-4.15,2.55a2.3,2.3,0,0,1-2.24-2.68c-3.69,1.62-2.2,8.07,3.22,7,3.42-.67,4.69-4.77,4.83-7.44Zm13.38.43a2.3,2.3,0,0,1-2.24,2.68c-1.91.28-3.33-1-4.15-2.55a2.22,2.22,0,0,1-.2-.56h-3.4v15s3.68-1.33,3.93-4.25-1.25-4.5-2-8.88c.76,2.38,2.19,5,4.86,5.55C319.76,79,321.25,72.55,317.56,70.93Zm-.73-15.72c-5.43,1.54-6.87,6.25-7.37,10.22h1.36a6.44,6.44,0,0,1,4.52-4c4.83-.82,5.25,4.49,2.24,5.49a6.58,6.58,0,0,0,7.52-1.19C329.87,61.25,324.54,53,316.83,55.21Z" transform="translate(-43.44 -41.37)"/></g></svg>